<svg width="256" height="256" viewBox="0 0 256 256" fill="none" xmlns="http://www.w3.org/2000/svg">
<g clip-path="url(#clip0_103_2)">
<rect x="1" y="1" width="254" height="254" rx="49" fill="url(#paint0_linear_103_2)" stroke="#7FF0DA" stroke-width="2"/>
<path d="M57.45 211V174.5H62.85V194.55H67.7L74.8 183.5H80.85L72.4 196.7L81.25 211H75.05L67.75 199.2H62.85V211H57.45ZM88.1805 211V183.5H93.5305V188.9C93.7971 187.067 94.5805 185.633 95.8805 184.6C97.1805 183.533 98.8971 183 101.03 183C103.864 183 106.064 183.883 107.63 185.65C109.197 187.417 109.98 189.9 109.98 193.1V195.55H104.58V193.25C104.58 189.55 102.764 187.7 99.1305 187.7C97.3305 187.7 95.9471 188.233 94.9805 189.3C94.0471 190.333 93.5805 191.85 93.5805 193.85V211H88.1805ZM117.011 211V206.1H126.561V188.4H118.011V183.5H131.961V206.1H140.811V211H117.011ZM128.811 178.75C127.644 178.75 126.711 178.45 126.011 177.85C125.311 177.217 124.961 176.383 124.961 175.35C124.961 174.283 125.311 173.45 126.011 172.85C126.711 172.217 127.644 171.9 128.811 171.9C129.978 171.9 130.911 172.217 131.611 172.85C132.311 173.45 132.661 174.283 132.661 175.35C132.661 176.383 132.311 177.217 131.611 177.85C130.911 178.45 129.978 178.75 128.811 178.75ZM162.191 211C159.591 211 157.508 210.25 155.941 208.75C154.408 207.217 153.641 205.183 153.641 202.65V179.4H144.391V174.5H159.041V202.55C159.041 203.65 159.341 204.517 159.941 205.15C160.541 205.783 161.358 206.1 162.391 206.1H170.691V211H162.191ZM192.172 211C189.572 211 187.489 210.25 185.922 208.75C184.389 207.217 183.622 205.183 183.622 202.65V179.4H174.372V174.5H189.022V202.55C189.022 203.65 189.322 204.517 189.922 205.15C190.522 205.783 191.339 206.1 192.372 206.1H200.672V211H192.172Z" fill="#7FF0DA"/>
<path d="M182.549 79.7103C177.91 84.8458 170.959 84.8657 164.949 87.2578V94.5469C170.601 96.1902 176.572 97.277 181.933 100.272C182.595 102.479 181.999 104.48 181.27 106.408C179.666 110.662 177.957 114.883 176.3 119.104C175.637 120.841 174.895 122.557 174.186 124.286C173.152 124.772 172.01 124.982 170.872 124.896C169.733 124.81 168.635 124.431 167.686 123.796C164.909 122.159 162.08 120.615 159.23 119.118C157.401 118.157 155.559 117.13 153.578 117.13L146.011 124.194C146.09 125.89 146.209 128.315 146.309 130.747C146.382 132.45 146.514 134.16 146.468 135.863C146.349 140.614 144.851 142.423 140.153 142.92C135.256 143.437 130.326 143.761 125.402 143.927C122.295 144.033 121.427 143.072 121.234 139.865C121.036 136.088 121.075 132.298 120.93 128.514C120.883 127.222 120.605 125.93 120.419 124.571L110.818 119.933L100.699 128.832C100.03 129.497 99.3193 130.119 98.572 130.694C95.7624 132.602 93.145 132.463 90.9649 129.925C86.4258 124.624 80.7535 120.264 77.4734 113.472C81.5035 107.988 86.6079 103.382 92.4757 99.9342C92.8136 94.5137 93.1383 88.8945 93.5293 83.0368C92.5287 81.5458 90.66 81.0488 88.9372 80.3133C84.524 78.5308 80.177 76.6953 75.7174 75.1182C73.5307 74.3429 72.6759 72.8586 73.6699 70.7911C76.3204 65.3375 78.8981 59.8641 81.6216 54.4371C82.1967 53.463 82.9011 52.5714 83.7155 51.7865C85.2396 50.0968 87.1017 49.3811 89.348 50.0967C91.6938 50.8455 94.0727 51.5082 96.3455 52.4491C98.6177 53.422 100.83 54.5283 102.972 55.7624C105.046 56.9286 106.776 56.9286 108.644 55.2521C111.669 52.5088 115.439 50.7239 119.478 50.1233C119.757 47.1414 120.075 44.345 120.26 41.5089C120.572 36.2342 122.745 33.6036 127.894 32.4771C132.645 31.4433 137.337 32.2915 141.995 33.1397C144.182 33.5307 146.276 34.4252 148.476 35.1276C149.357 38.739 149.377 42.1384 149.463 45.5179C149.543 48.7251 149.463 51.9323 149.463 54.9937L159.668 61.8189C160.761 61.3087 162.279 60.6328 163.769 59.8972C166.636 58.4013 169.813 57.5958 173.047 57.5449C174.829 57.5449 176.698 57.969 177.38 59.6985C179.885 65.9936 182.966 72.1561 182.681 79.2067C182.663 79.3802 182.618 79.55 182.549 79.7103ZM95.6299 125.605C100.639 120.39 104.907 115.241 111.533 112.604C115.602 116.52 120.062 119.893 125.933 121.099C127.92 126.804 125.316 132.921 127.742 138.328C133.56 139.156 135.693 138.931 139.669 137.002C139.742 132.086 139.822 127.003 139.894 122.013C143.042 119.734 146.415 118.117 148.231 114.864C150.218 111.318 153.041 111.02 156.441 112.299C159.091 113.3 161.742 114.287 164.392 115.334C166.135 116.043 167.812 116.898 169.468 117.667C172.954 114.029 174.809 109.436 175.114 103.698C174.133 103.314 173.126 102.843 172.053 102.518C168.607 101.478 165.128 100.531 161.695 99.4637C158.7 98.5227 158.117 97.5288 158.382 94.4409C158.561 92.5589 158.74 90.6704 158.912 88.7885C159.085 86.9066 158.482 84.9717 159.794 83.103C164.836 80.4127 170.847 79.7898 176.002 77.1392C175.778 72.3587 174.212 67.738 171.483 63.8068C168.017 64.052 165.101 65.8478 162.153 67.5375C158.839 69.4261 155.248 69.1014 153.353 65.5496C151.995 63.0003 149.681 61.0938 146.918 60.2484C146.211 59.9756 145.527 59.6477 144.871 59.2677C143.247 58.4063 142.22 57.1539 142.22 55.2124C142.22 52.7539 142.399 50.2823 142.22 47.8305C142.022 44.8685 143.347 41.8005 141.604 38.9511C138.49 38.4011 135.369 37.6722 132.234 37.3011C130.207 37.0626 128.093 37.2481 126.271 38.6264C125.608 43.9275 126.138 49.2751 124.521 54.1588C124.144 54.4562 123.73 54.7034 123.289 54.8943C118.213 56.0804 113.501 57.9027 110.142 62.1834C109.707 62.699 109.131 63.0761 108.485 63.2681C107.838 63.46 107.149 63.4584 106.504 63.2635C104.843 62.9207 103.223 62.4008 101.673 61.7129C98.7377 60.3876 95.9016 58.8503 92.9727 57.4919C91.442 56.8358 89.8251 56.3521 88.4203 55.8551C84.5833 60.2897 81.9622 65.6437 80.8132 71.3941C82.6288 72.1296 84.5306 72.9116 86.4456 73.667C89.0962 74.714 91.7468 75.6549 94.3974 76.7947C99.2081 78.8555 99.9039 79.9223 99.6521 84.912C99.3606 90.5909 98.9365 96.2565 99.5328 101.942C99.4794 102.557 99.3342 103.16 99.1021 103.731C96.1799 105.335 93.2245 107.005 90.2227 108.595C87.8306 109.874 85.7234 111.371 84.7957 114.3C87.6782 118.462 91.2962 121.98 95.6299 125.605Z" fill="#7FF0DA"/>
<path d="M132.042 74.8266C142.571 74.535 145.871 83.547 143.221 90.5047C142.558 92.2674 141.79 94.0035 140.961 95.6999C137.118 103.585 126.443 105.951 119.757 100.338C118.576 99.3916 117.604 98.2114 116.9 96.8717C116.197 95.532 115.777 94.0615 115.668 92.5523C115.455 90.2858 115.721 87.9997 116.45 85.843C117.179 83.6863 118.354 81.7074 119.899 80.0351C121.444 78.3629 123.324 77.0348 125.416 76.1373C127.508 75.2399 129.766 74.7933 132.042 74.8266ZM136.594 86.1512C136.415 84.9594 136.154 83.7815 135.813 82.6259C135.637 82.0792 135.313 81.5915 134.879 81.2163C134.444 80.8411 133.914 80.5929 133.347 80.4988C128.709 79.5645 125.72 81.0289 123.547 85.2632C122.266 87.8448 122.028 90.8208 122.884 93.5728C123.852 97.098 128.292 99.9209 132.433 96.6209C135.461 94.1758 136.508 90.8294 136.594 86.1512Z" fill="#7FF0DA"/>
</g>
<defs>
<linearGradient id="paint0_linear_103_2" x1="256" y1="256" x2="0" y2="0" gradientUnits="userSpaceOnUse">
<stop stop-color="#1E1E1E"/>
<stop offset="1" stop-color="#2A2D2E"/>
</linearGradient>
<clipPath id="clip0_103_2">
<rect width="256" height="256" fill="white"/>
</clipPath>
</defs>
</svg>
