<svg width="256" height="256" viewBox="0 0 256 256" fill="none" xmlns="http://www.w3.org/2000/svg">
<g clip-path="url(#clip0_104_2)">
<rect x="1" y="1" width="254" height="254" rx="49" fill="url(#paint0_linear_104_2)" stroke="#7FF0DA" stroke-width="2"/>
<path d="M216.655 114.103C209.159 122.403 197.925 122.435 188.212 126.301V138.08C197.347 140.736 206.995 142.492 215.659 147.333C216.73 150.899 215.766 154.133 214.588 157.249C211.996 164.124 209.234 170.946 206.556 177.767C205.485 180.573 204.286 183.346 203.14 186.141C201.469 186.926 199.624 187.265 197.783 187.126C195.943 186.987 194.169 186.375 192.635 185.349C188.148 182.704 183.575 180.209 178.971 177.788C176.015 176.236 173.038 174.576 169.836 174.576L157.606 185.991C157.735 188.733 157.928 192.652 158.088 196.582C158.206 199.335 158.42 202.097 158.345 204.85C158.153 212.528 155.732 215.451 148.14 216.254C140.226 217.09 132.259 217.614 124.302 217.882C119.28 218.054 117.877 216.501 117.566 211.318C117.245 205.214 117.309 199.088 117.074 192.974C116.999 190.885 116.549 188.797 116.249 186.602L100.732 179.106L84.3798 193.488C83.2981 194.562 82.15 195.567 80.9423 196.497C76.4017 199.581 72.1718 199.356 68.6486 195.255C61.313 186.687 52.1463 179.641 46.8455 168.665C53.3584 159.802 61.6075 152.358 71.0902 146.787C71.6363 138.027 72.161 128.946 72.7929 119.479C71.1758 117.07 68.156 116.266 65.3717 115.078C58.2396 112.197 51.2146 109.231 44.0076 106.682C40.4737 105.429 39.0923 103.03 40.6986 99.6893C44.9821 90.8759 49.1479 82.0305 53.5492 73.26C54.4785 71.6859 55.6169 70.2449 56.9331 68.9765C59.3962 66.2457 62.4053 65.0892 66.0356 66.2457C69.8265 67.4558 73.671 68.5267 77.3441 70.0473C81.0161 71.6195 84.592 73.4074 88.0529 75.4017C91.4047 77.2865 94.1997 77.2865 97.2196 74.5772C102.108 70.1437 108.201 67.2593 114.728 66.2886C115.178 61.4696 115.692 56.9505 115.992 52.3671C116.495 43.8429 120.008 39.5915 128.329 37.771C136.007 36.1005 143.589 37.4712 151.117 38.8419C154.651 39.4737 158.035 40.9194 161.59 42.0546C163.014 47.8909 163.047 53.3845 163.186 58.8459C163.314 64.029 163.186 69.2121 163.186 74.1595L179.677 85.1896C181.444 84.365 183.897 83.2727 186.306 82.084C190.939 79.6665 196.073 78.3647 201.298 78.2824C204.179 78.2824 207.199 78.9678 208.302 81.7628C212.35 91.9361 217.329 101.895 216.869 113.289C216.839 113.57 216.766 113.844 216.655 114.103ZM76.1875 188.272C84.2834 179.845 91.1799 171.524 101.889 167.262C108.464 173.591 115.671 179.041 125.159 180.99C128.371 190.211 124.163 200.095 128.082 208.833C137.485 210.172 140.933 209.808 147.358 206.692C147.476 198.746 147.604 190.532 147.722 182.468C152.809 178.784 158.26 176.171 161.194 170.913C164.407 165.184 168.969 164.702 174.462 166.769C178.746 168.386 183.029 169.982 187.313 171.674C190.129 172.82 192.838 174.201 195.516 175.443C201.148 169.564 204.147 162.143 204.64 152.869C203.055 152.248 201.427 151.488 199.692 150.963C194.123 149.282 188.501 147.75 182.954 146.026C178.114 144.506 177.171 142.899 177.6 137.909C177.889 134.868 178.178 131.816 178.456 128.774C178.735 125.733 177.76 122.606 179.881 119.586C188.03 115.238 197.743 114.232 206.074 109.948C205.713 102.223 203.182 94.7553 198.771 88.4022C193.17 88.7984 188.459 91.7005 183.693 94.4313C178.339 97.4833 172.535 96.9585 169.472 91.2186C167.277 87.0987 163.537 84.0177 159.074 82.6516C157.931 82.2107 156.824 81.6807 155.765 81.0667C153.141 79.6745 151.481 77.6506 151.481 74.5129C151.481 70.5399 151.77 66.5456 151.481 62.5833C151.16 57.7965 153.302 52.8383 150.485 48.2335C145.452 47.3447 140.408 46.1667 135.343 45.567C132.066 45.1815 128.65 45.4814 125.705 47.7088C124.634 56.2758 125.491 64.9178 122.878 72.8102C122.268 73.2908 121.599 73.6904 120.886 73.9989C112.683 75.9158 105.069 78.8607 99.6398 85.7786C98.9374 86.6119 98.0064 87.2213 96.9616 87.5316C95.9168 87.8418 94.804 87.8392 93.7607 87.5241C91.0764 86.9701 88.4592 86.13 85.954 85.0182C81.21 82.8765 76.6266 80.392 71.8933 78.1967C69.4196 77.1366 66.8066 76.3548 64.5364 75.5517C58.3355 82.7182 54.0997 91.3707 52.2427 100.664C55.1769 101.852 58.2503 103.116 61.3452 104.337C65.6287 106.029 69.9122 107.55 74.1957 109.391C81.9703 112.722 83.0947 114.446 82.6878 122.51C82.2166 131.687 81.5312 140.843 82.495 150.031C82.4087 151.024 82.1741 151.999 81.799 152.923C77.0764 155.514 72.3003 158.213 67.4492 160.783C63.5833 162.85 60.1779 165.27 58.6787 170.003C63.337 176.728 69.184 182.415 76.1875 188.272Z" fill="#7FF0DA"/>
<path d="M135.032 106.211C152.049 105.74 157.382 120.304 153.098 131.548C152.027 134.396 150.785 137.202 149.446 139.944C143.235 152.687 125.983 156.51 115.178 147.44C113.271 145.91 111.699 144.002 110.562 141.837C109.425 139.672 108.748 137.296 108.571 134.857C108.226 131.194 108.657 127.5 109.835 124.014C111.013 120.529 112.912 117.331 115.408 114.628C117.905 111.926 120.943 109.779 124.324 108.329C127.705 106.879 131.354 106.157 135.032 106.211ZM142.389 124.512C142.1 122.586 141.678 120.683 141.126 118.815C140.841 117.932 140.319 117.143 139.616 116.537C138.914 115.931 138.058 115.53 137.142 115.378C129.646 113.868 124.816 116.234 121.304 123.077C119.233 127.249 118.849 132.059 120.233 136.506C121.796 142.203 128.971 146.765 135.664 141.432C140.558 137.481 142.25 132.073 142.389 124.512Z" fill="#7FF0DA"/>
</g>
<defs>
<linearGradient id="paint0_linear_104_2" x1="256" y1="256" x2="0" y2="0" gradientUnits="userSpaceOnUse">
<stop stop-color="#1E1E1E"/>
<stop offset="1" stop-color="#2A2D2E"/>
</linearGradient>
<clipPath id="clip0_104_2">
<rect width="256" height="256" fill="white"/>
</clipPath>
</defs>
</svg>
